<?xml version="1.0" encoding="UTF-8" standalone="no"?>
<svg
   xmlns="http://www.w3.org/2000/svg"
   viewBox="0 0 50.799999 50.800001"
  >
  <path
     fill="none" strokeWidth="3"
     d="M 23.552734 14.734375 C 16.491444 15.37864 10.241911 18.757941 7.0390625 23.8125 C 10.55547 29.361901 17.741962 32.896103 25.646484 33.001953 L 23.552734 14.734375 z M 39.689453 18.537109 L 38.523438 29.808594 C 41.209568 28.270188 43.444149 26.233952 44.978516 23.8125 C 43.672443 21.751329 41.856446 19.971259 39.689453 18.537109 z " />
  <path
     fill="none" strokeWidth="3"
     d="M 23.902344 17.720703 A 6.511651 6.511651 0 0 0 19.873047 23.738281 A 6.511651 6.511651 0 0 0 25.328125 30.164062 L 23.902344 17.720703 z " />
  <path
     fill="none" strokeWidth="3"
     d="m 26.541573,3.6530334 h 9.931686 L 33.619326,37 h -3.36764 z" />
  <rect
     fill="none" strokeWidth="3"
     width="5.2832642"
     height="5.7398934"
     x="29.265335"
     y="41.308929" />
</svg>
