<?xml version="1.0" encoding="UTF-8" standalone="no"?>
<svg
   xmlns:dc="http://purl.org/dc/elements/1.1/"
   xmlns:cc="http://creativecommons.org/ns#"
   xmlns:rdf="http://www.w3.org/1999/02/22-rdf-syntax-ns#"
   xmlns:svg="http://www.w3.org/2000/svg"
   xmlns="http://www.w3.org/2000/svg"
   xmlns:sodipodi="http://sodipodi.sourceforge.net/DTD/sodipodi-0.dtd"
   xmlns:inkscape="http://www.inkscape.org/namespaces/inkscape"
   id="Layer_1"
   data-name="Layer 1"
   viewBox="0 0 192 192"
   version="1.1"
   sodipodi:docname="logo.svg"
   width="192"
   height="192"
   inkscape:version="1.0.1 (3bc2e813f5, 2020-09-07)">
  <metadata
     id="metadata861">
    <rdf:RDF>
      <cc:Work
         rdf:about="">
        <dc:format>image/svg+xml</dc:format>
        <dc:type
           rdf:resource="http://purl.org/dc/dcmitype/StillImage" />
        <dc:title></dc:title>
      </cc:Work>
    </rdf:RDF>
  </metadata>
  <sodipodi:namedview
     pagecolor="#ffffff"
     bordercolor="#666666"
     borderopacity="1"
     objecttolerance="10"
     gridtolerance="10"
     guidetolerance="10"
     inkscape:pageopacity="0"
     inkscape:pageshadow="2"
     inkscape:window-width="1858"
     inkscape:window-height="1057"
     id="namedview859"
     showgrid="false"
     inkscape:zoom="3.5355339"
     inkscape:cx="106.57556"
     inkscape:cy="104.71074"
     inkscape:window-x="-8"
     inkscape:window-y="-8"
     inkscape:window-maximized="1"
     inkscape:current-layer="Layer_1" />
  <defs
     id="defs850">
    <inkscape:path-effect
       effect="spiro"
       id="path-effect984"
       is_visible="true"
       lpeversion="1" />
    <inkscape:path-effect
       effect="spiro"
       id="path-effect980"
       is_visible="true"
       lpeversion="1" />
    <inkscape:path-effect
       effect="spiro"
       id="path-effect975"
       is_visible="true"
       lpeversion="1" />
    <inkscape:path-effect
       effect="spiro"
       id="path-effect956"
       is_visible="true"
       lpeversion="1" />
    <style
       id="style848">.cls-1{fill:#fff}.cls-2{fill:#326893}</style>
  </defs>
  <path
     id="path854"
     style="stroke-width:3.64495;fill:#326893;fill-opacity:1"
     d="M 61.386719 28.46875 A 39.504303 41.885701 0 0 0 60.800781 28.472656 C 50.228543 28.472656 42.297839 31.77523 37.011719 38.380859 L 37.011719 29.861328 L 10.109375 29.861328 L 10.109375 142.15625 A 3.5398122 3.7531991 0 0 0 13.650391 145.91016 L 34.888672 145.91016 A 3.5398122 3.7531991 0 0 0 38.427734 142.15625 L 38.427734 123.75391 C 28.986653 117.33127 20.625701 109.33712 13.949219 100.0625 C 20.537274 90.918136 28.762692 83.022397 38.044922 76.646484 A 19.822949 21.017915 0 0 1 37.898438 72.498047 A 19.787551 20.980383 0 0 1 42.675781 57.484375 A 15.787562 16.739267 0 0 1 54.853516 52.042969 A 15.893757 16.851864 0 0 1 67.066406 57.484375 A 19.929142 21.13051 0 0 1 69.865234 62.03125 C 74.411991 60.830284 79.038655 59.948188 83.708984 59.408203 A 46.017559 48.791588 0 0 1 87.066406 52.080078 A 44.247652 46.914989 0 0 1 92.304688 44.761719 A 36.95564 39.183399 0 0 0 80.800781 33.914062 A 39.504303 41.885701 0 0 0 61.386719 28.46875 z M 83.708984 59.408203 A 46.017559 48.791588 0 0 0 80.996094 70.728516 C 84.771886 70.101719 88.587577 69.724398 92.416016 69.607422 A 38.44236 40.759742 0 0 1 95.849609 58.787109 C 95.41923 58.781309 94.989153 58.767419 94.558594 58.767578 C 90.930042 58.768921 87.307674 58.992122 83.708984 59.408203 z M 95.849609 58.787109 C 106.31701 58.928191 116.72089 60.821847 126.60742 64.246094 A 19.999939 21.205575 0 0 1 150.64062 65.291016 A 15.362784 16.288884 0 0 1 155.52539 77.828125 A 15.575173 16.514076 0 0 1 155.47461 79.787109 C 162.97505 85.541813 169.66765 92.334337 175.20508 100.00977 C 169.16731 108.40876 161.7472 115.75652 153.39648 121.84375 A 19.008791 20.15468 0 0 1 149.89648 127.29492 A 23.114974 24.50839 0 0 1 134.87695 132.58203 C 123.17001 137.82372 110.49038 140.87711 97.673828 141.30469 L 96.197266 144.33398 A 53.097183 56.297987 0 0 0 113.89648 152.70312 A 89.982025 95.40632 0 0 0 136.19727 155.51758 C 151.48925 155.49256 163.19453 151.52783 171.3125 143.62109 C 179.43047 135.71435 183.49023 123.81627 183.49023 107.92773 L 183.49023 38.080078 L 156.58789 38.080078 L 156.58789 48.515625 C 151.24276 40.671438 142.81689 36.691406 131.3125 36.691406 A 41.451201 43.949962 0 0 0 111.52539 41.833984 A 36.884843 39.108334 0 0 0 97.119141 56.322266 A 38.44236 40.759742 0 0 0 95.849609 58.787109 z M 97.673828 141.30469 L 103.10352 130.16992 C 102.50078 130.23973 101.8989 130.31565 101.29492 130.37305 A 31.35 30.75 0 0 0 103.23438 129.9043 L 106.42773 123.35352 A 35.999891 38.170034 0 0 0 110.99805 126.59766 A 31.35 30.75 0 0 0 120.55469 117.75781 A 41.415802 43.91243 0 0 1 111.38477 114.00781 A 36.707852 38.920675 0 0 1 109.26953 112.70898 A 19.300001 19 0 0 1 94.695312 119.25195 A 19.300001 19 0 0 1 79.568359 112.04883 A 39.858285 42.261021 0 0 1 67.892578 116.16797 A 31.35 30.75 0 0 0 89.958984 130.68945 C 71.180301 129.9035 52.754174 122.56343 38.427734 110.41016 L 38.427734 123.75391 C 54.88546 134.94987 74.637664 141.3577 94.558594 141.35742 C 95.597585 141.35741 96.636166 141.33931 97.673828 141.30469 z M 38.427734 110.41016 L 38.427734 107.74023 A 29.982208 31.789596 0 0 0 60.871094 116.74805 A 39.858285 42.261021 0 0 0 67.892578 116.16797 A 31.35 30.75 0 0 1 63.396484 100.30078 A 31.35 30.75 0 0 1 65.599609 88.984375 A 15.999952 16.96446 0 0 1 54.853516 92.916016 A 15.858359 16.814332 0 0 1 42.675781 87.509766 A 19.822949 21.017915 0 0 1 42.361328 87.113281 C 37.207021 90.923864 32.464938 95.286802 28.279297 100.15039 C 31.348497 103.86899 34.755984 107.29537 38.427734 110.41016 z M 42.361328 87.113281 C 51.19072 80.585705 61.239628 75.69788 71.822266 72.759766 A 19.96454 21.168042 0 0 0 71.808594 72.498047 A 19.929142 21.13051 0 0 0 69.865234 62.03125 C 58.531142 65.025 47.712873 70.005621 38.044922 76.646484 A 19.822949 21.017915 0 0 0 42.361328 87.113281 z M 71.822266 72.759766 A 19.96454 21.168042 0 0 1 70.832031 80.419922 A 31.35 30.75 0 0 1 80.789062 72.769531 A 46.017559 48.791588 0 0 1 80.996094 70.728516 C 77.904908 71.241665 74.842646 71.921201 71.822266 72.759766 z M 80.789062 72.769531 A 46.017559 48.791588 0 0 0 80.623047 77.902344 A 46.477734 49.279504 0 0 0 81.201172 86.669922 A 19.300001 19 0 0 1 91.849609 81.460938 A 38.548555 40.872338 0 0 1 91.773438 77.865234 A 38.44236 40.759742 0 0 1 92.410156 69.638672 A 31.35 30.75 0 0 0 80.789062 72.769531 z M 92.410156 69.638672 A 31.35 30.75 0 0 1 93.712891 69.568359 C 93.280406 69.574878 92.848243 69.594215 92.416016 69.607422 A 38.44236 40.759742 0 0 0 92.410156 69.638672 z M 91.849609 81.460938 A 38.548555 40.872338 0 0 0 97.119141 99.521484 A 36.707852 38.920675 0 0 0 109.26953 112.70898 A 19.300001 19 0 0 0 113.99609 100.25195 A 19.300001 19 0 0 0 94.695312 81.251953 A 19.300001 19 0 0 0 91.849609 81.460938 z M 81.201172 86.669922 A 19.300001 19 0 0 0 75.396484 100.25195 A 19.300001 19 0 0 0 79.568359 112.04883 A 39.858285 42.261021 0 0 0 80.871094 111.30664 A 37.274222 39.521185 0 0 0 88.162109 105.45117 C 87.737332 104.92572 87.38499 104.43755 87.066406 103.91211 A 46.477734 49.279504 0 0 1 81.201172 86.669922 z M 70.832031 80.419922 A 31.35 30.75 0 0 0 65.599609 88.984375 A 15.999952 16.96446 0 0 0 67.066406 87.509766 A 19.96454 21.168042 0 0 0 70.832031 80.419922 z M 120.55469 117.75781 A 41.415802 43.91243 0 0 0 131.17188 119.11328 C 133.60882 119.11328 135.9029 118.92434 138.06641 118.56445 C 146.45567 113.74239 154.10363 107.63073 160.58594 100.44531 C 157.58854 96.788824 154.27407 93.398531 150.70117 90.304688 A 15.575173 16.514076 0 0 1 150.57031 90.4375 A 17.699061 18.765995 0 0 1 138.00391 95.316406 A 17.982246 19.066252 0 0 1 125.36719 90.4375 A 15.398182 16.326416 0 0 1 123.74805 88.630859 A 31.35 30.75 0 0 1 126.0957 100.30078 A 31.35 30.75 0 0 1 120.55469 117.75781 z M 123.74805 88.630859 A 31.35 30.75 0 0 0 121.17969 83.771484 A 15.398182 16.326416 0 0 0 123.74805 88.630859 z M 121.17969 83.771484 A 15.398182 16.326416 0 0 1 120.30469 77.828125 A 15.221193 16.138757 0 0 1 120.71484 73.494141 C 118.34139 72.740654 115.93689 72.086527 113.50391 71.550781 C 107.56716 70.243502 101.48921 69.588184 95.410156 69.558594 A 31.35 30.75 0 0 1 121.17969 83.771484 z M 120.71484 73.494141 C 131.71009 76.984732 141.9798 82.752676 150.70117 90.304688 A 15.575173 16.514076 0 0 0 155.47461 79.787109 C 146.77094 73.109225 136.97633 67.837414 126.60742 64.246094 A 19.999939 21.205575 0 0 0 125.29492 65.291016 A 15.221193 16.138757 0 0 0 120.71484 73.494141 z M 138.06641 118.56445 C 130.55326 122.88293 122.44486 126.16108 114.02539 128.21484 A 35.999891 38.170034 0 0 0 118.85352 130.07227 A 50.867101 53.93347 0 0 0 133.65039 132.51172 A 23.114974 24.50839 0 0 0 134.87695 132.58203 C 141.40287 129.66011 147.62136 126.05351 153.39648 121.84375 A 19.008791 20.15468 0 0 0 155.10156 111.86914 L 155.10156 109.01562 C 150.91384 114.20541 145.23649 117.37174 138.06641 118.56445 z M 114.02539 128.21484 A 35.999891 38.170034 0 0 1 110.99805 126.59766 A 31.35 30.75 0 0 1 103.23438 129.9043 L 103.10352 130.16992 C 106.6015 129.76476 110.07793 129.16351 113.50391 128.34961 C 113.67858 128.30811 113.85098 128.25739 114.02539 128.21484 z " />
</svg>
